DataType=double
version=3
OpenSimVersion=4.3-2021-08-27-4bc7ad9
endheader
time	ground_force_r_vx	ground_force_r_vy	ground_force_r_vz	ground_force_r_px	ground_force_r_py	ground_force_r_pz	ground_force_l_vx	ground_force_l_vy	ground_force_l_vz	ground_force_l_px	ground_force_l_py	ground_force_l_pz	ground_torque_r_x	ground_torque_r_y	ground_torque_r_z	ground_torque_l_x	ground_torque_l_y	ground_torque_l_z
0.868	-1.064023836968135	0.9484850169951122	0	0	0	0	0	0	0	0	0	0	0	0	0.002314310547114204	0	0	0
0.8707129597419885	-11.63515463188491	11.54814915593539	0	0	0	0	0	0	0	0	0	0	0	0	0.08879323517454946	0	0	0
0.873425919483977	-67.18935234899968	65.05018621712587	0	0	0	0	0	0	0	0	0	0	0	0	0.6449247032439711	0	0	0
0.8761388792259653	-202.5166793774619	199.3923664810044	0	0	0	0	0	0	0	0	0	0	0	0	2.607665016981352	0	0	0
0.8788518389679538	-500.8576858663613	559.6445396946448	0	0	0	0	0	0	0	0	0	0	0	0	9.416293426620912	0	0	0
0.8815647987099423	-504.4957708424392	891.7067208652501	0	0	0	0	0	0	0	0	0	0	0	0	20.10181836048825	0	0	0
0.8842777584519308	-486.2331659466232	1143.009595724061	0	0	0	0	0	0	0	0	0	0	0	0	28.90996964113534	0	0	0
0.8869907181939193	-379.8092537581813	1333.014270669428	0	0	0	0	0	0	0	0	0	0	0	0	37.31716705496348	0	0	0
0.8897036779359078	-213.6046272884412	1487.921972886533	0	0	0	0	0	0	0	0	0	0	0	0	47.06596231188843	0	0	0
0.8924166376778961	-62.09254216562164	1616.908458756664	0	0	0	0	0	0	0	0	0	0	0	0	57.28844581824802	0	0	0
0.8951295974198846	10.39064412821991	1696.033089434136	0	0	0	0	0	0	0	0	0	0	0	0	65.95091519054967	0	0	0
0.8978425571618731	1.923809736338883	1727.519907614265	0	0	0	0	0	0	0	0	0	0	0	0	73.33225363220241	0	0	0
0.9005555169038616	-87.09369985204816	1726.438272667996	0	0	0	0	0	0	0	0	0	0	0	0	79.66777644631978	0	0	0
0.9032684766458501	-199.2801816286906	1690.60994968567	0	0	0	0	0	0	0	0	0	0	0	0	84.60942149174602	0	0	0
0.9059814363878386	-302.8798222117102	1646.774315180372	0	0	0	0	0	0	0	0	0	0	0	0	89.84980227486705	0	0	0
0.9086943961298271	-369.8544870073461	1603.2379394081	0	0	0	0	0	0	0	0	0	0	0	0	97.1319003944528	0	0	0
0.9114073558718154	-387.9971147041919	1569.648738171394	0	0	0	0	0	0	0	0	0	0	0	0	107.5073367970284	0	0	0
0.9141203156138039	-369.5383741768992	1549.208817812345	0	0	0	0	0	0	0	0	0	0	0	0	120.6173151490692	0	0	0
0.9168332753557924	-337.044181245828	1540.479455316384	0	0	0	0	0	0	0	0	0	0	0	0	136.3081223096527	0	0	0
0.9195462350977809	-298.3066431821463	1552.262291489104	0	0	0	0	0	0	0	0	0	0	0	0	154.6684885025567	0	0	0
0.9222591948397694	-266.4617921647809	1571.606020871786	0	0	0	0	0	0	0	0	0	0	0	0	174.1984516223836	0	0	0
0.9249721545817577	-236.0489425581401	1596.053233495049	0	0	0	0	0	0	0	0	0	0	0	0	194.2456005823209	0	0	0
0.9276851143237462	-209.5205114502883	1620.179766674233	0	0	0	0	0	0	0	0	0	0	0	0	213.9484244382948	0	0	0
0.9303980740657347	-174.5902472201255	1644.295870125293	0	0	0	0	0	0	0	0	0	0	0	0	234.2699163193616	0	0	0
0.9331110338077232	-133.7988166912349	1671.268646940927	0	0	0	0	0	0	0	0	0	0	0	0	256.6296394925598	0	0	0
0.9358239935497117	-106.6989404210983	1675.771593289046	0	0	0	0	0	0	0	0	0	0	0	0	276.0095893272604	0	0	0
0.9385369532917002	-76.18088151748665	1685.782512489893	0	0	0	0	0	0	0	0	0	0	0	0	287.6464054552851	0	0	0
0.9412499130336887	-33.61251901266399	1693.848711909178	0	0	0	0	0	0	0	0	0	0	0	0	293.9732249903394	0	0	0
0.943962872775677	-0.4795253432868929	1687.497182430799	0	0	0	0	0	0	0	0	0	0	0	0	298.0646008462747	0	0	0
0.9466758325176655	29.03366420452495	1679.489535759885	0	0	0	0	0	0	0	0	0	0	0	0	301.5345780829024	0	0	0
0.949388792259654	65.51379488850009	1668.276069447345	0	0	0	0	0	0	0	0	0	0	0	0	304.8295587547453	0	0	0
0.9521017520016425	99.95976132778259	1650.666739976782	0	0	0	0	0	0	0	0	0	0	0	0	307.6559265049221	0	0	0
0.954814711743631	132.3845706621243	1626.364040697194	0	0	0	0	0	0	0	0	0	0	0	0	309.519211426768	0	0	0
0.9575276714856193	165.1798183978244	1597.257982993819	0	0	0	0	0	0	0	0	0	0	0	0	310.3627667978587	0	0	0
0.9602406312276078	200.9827204025964	1562.193887708649	0	0	0	0	0	0	0	0	0	0	0	0	310.0297146849274	0	0	0
0.9629535909695963	229.4281673258023	1517.537687652991	0	0	0	0	0	0	0	0	0	0	0	0	306.9749102649037	0	0	0
0.9656665507115848	254.9635039847634	1480.359185981658	0	0	0	0	0	0	0	0	0	0	0	0	300.5925519148558	0	0	0
0.9683795104535733	285.6048067830958	1417.649697487159	0	0	0	0	0	0	0	0	0	0	0	0	289.755747237827	0	0	0
0.9710924701955617	308.1150973996946	1358.771025091021	0	0	0	0	0	0	0	0	0	0	0	0	279.5195202321788	0	0	0
0.9738054299375501	330.1217694039829	1291.511317782707	0	0	0	0	0	0	0	0	0	0	0	0	267.8047861537378	0	0	0
0.9765183896795386	349.1234684457779	1220.597545336048	0	0	0	0	0	0	0	0	0	0	0	0	255.4242232385566	0	0	0
0.9792313494215271	364.8593681810453	1139.655600499016	0	0	0	0	0	0	0	0	0	0	0	0	241.137300719688	0	0	0
0.9819443091635156	377.6508591056418	1049.988753296167	0	0	0	0	0	0	0	0	0	0	0	0	225.2428398259559	0	0	0
0.9846572689055041	386.866419750877	955.9929942029963	0	0	0	0	0	0	0	0	0	0	0	0	208.5625086047248	0	0	0
0.9873702286474926	393.8836238683105	866.2873189146397	0	0	0	0	0	0	0	0	0	0	0	0	192.8249198707853	0	0	0
0.990083188389481	389.4355385643935	767.2719495317829	0	0	0	0	0	0	0	0	0	0	0	0	174.7110824635616	0	0	0
0.9927961481314694	372.5458757890401	646.1970369849103	0	0	0	0	0	0	0	0	0	0	0	0	151.7585776814058	0	0	0
0.9955091078734579	362.2735671175134	538.7369300266649	0	0	0	0	0	0	0	0	0	0	0	0	132.264861829938	0	0	0
0.9982220676154464	364.3999542222314	494.4064286564041	0	0	0	0	0	0	0	0	0	0	0	0	125.472019029113	0	0	0
1.000935027357435	275.2984219779017	407.3842104575404	0	0	0	0	0	0	0	0	0	0	0	0	100.8637068029334	0	0	0
1.003647987099423	54.22368620354708	142.8691096576384	0	0	0	0	0	0	0	0	0	0	0	0	29.98582324280539	0	0	0
1.006360946841412	5.262760140598872e-14	-5.044554738702379e-14	0	0	0	0	0	0	0	0	0	0	0	0	-7.339124207725911e-16	0	0	0
1.0090739065834	0	0	0	0	0	0	0	0	0	0	0	0	0	0	0	0	0	0
1.011786866325389	0	0	0	0	0	0	0	0	0	0	0	0	0	0	0	0	0	0
1.014499826067377	0	0	0	0	0	0	0	0	0	0	0	0	0	0	0	0	0	0
1.017212785809366	0	0	0	0	0	0	0	0	0	0	0	0	0	0	0	0	0	0
1.019925745551354	0	0	0	0	0	0	0	0	0	0	0	0	0	0	0	0	0	0
1.022638705293343	0	0	0	0	0	0	0	0	0	0	0	0	0	0	0	0	0	0
1.025351665035331	0	0	0	0	0	0	0	0	0	0	0	0	0	0	0	0	0	0
1.02806462477732	0	0	0	0	0	0	0	0	0	0	0	0	0	0	0	0	0	0
1.030777584519308	0	0	0	0	0	0	0	0	0	0	0	0	0	0	0	0	0	0
1.033490544261296	0	0	0	0	0	0	0	0	0	0	0	0	0	0	0	0	0	0
1.036203504003285	0	0	0	0	0	0	0	0	0	0	0	0	0	0	0	0	0	0
1.038916463745273	0	0	0	0	0	0	0	0	0	0	0	0	0	0	0	0	0	0
1.041629423487262	0	0	0	0	0	0	0	0	0	0	0	0	0	0	0	0	0	0
1.04434238322925	0	0	0	0	0	0	0	0	0	0	0	0	0	0	0	0	0	0
1.047055342971239	0	0	0	0	0	0	0	0	0	0	0	0	0	0	0	0	0	0
1.049768302713227	0	0	0	0	0	0	0	0	0	0	0	0	0	0	0	0	0	0
1.052481262455216	0	0	0	0	0	0	0	0	0	0	0	0	0	0	0	0	0	0
1.055194222197204	0	0	0	0	0	0	0	0	0	0	0	0	0	0	0	0	0	0
1.057907181939193	0	0	0	0	0	0	0	0	0	0	0	0	0	0	0	0	0	0
1.060620141681181	0	0	0	0	0	0	0	0	0	0	0	0	0	0	0	0	0	0
1.06333310142317	0	0	0	0	0	0	0	0	0	0	0	0	0	0	0	0	0	0
1.066046061165158	0	0	0	0	0	0	0	0	0	0	0	0	0	0	0	0	0	0
1.068759020907146	0	0	0	0	0	0	0	0	0	0	0	0	0	0	0	0	0	0
1.071471980649135	0	0	0	0	0	0	0	0	0	0	0	0	0	0	0	0	0	0
1.074184940391123	0	0	0	0	0	0	0	0	0	0	0	0	0	0	0	0	0	0
1.076897900133112	0	0	0	0	0	0	0	0	0	0	0	0	0	0	0	0	0	0
1.0796108598751	0	0	0	0	0	0	0	0	0	0	0	0	0	0	0	0	0	0
1.082323819617089	0	0	0	0	0	0	0	0	0	0	0	0	0	0	0	0	0	0
1.085036779359077	0	0	0	0	0	0	0	0	0	0	0	0	0	0	0	0	0	0
1.087749739101066	0	0	0	0	0	0	0	0	0	0	0	0	0	0	0	0	0	0
1.090462698843054	0	0	0	0	0	0	0	0	0	0	0	0	0	0	0	0	0	0
1.093175658585043	0	0	0	0	0	0	0	0	0	0	0	0	0	0	0	0	0	0
1.095888618327031	0	0	0	0	0	0	0	0	0	0	0	0	0	0	0	0	0	0
1.09860157806902	0	0	0	0	0	0	0	0	0	0	0	0	0	0	0	0	0	0
1.101314537811008	0	0	0	0	0	0	0	0	0	0	0	0	0	0	0	0	0	0
1.104027497552997	0	0	0	0	0	0	0	0	0	0	0	0	0	0	0	0	0	0
1.106740457294985	0	0	0	0	0	0	0	0	0	0	0	0	0	0	0	0	0	0
1.109453417036974	0	0	0	0	0	0	0	0	0	0	0	0	0	0	0	0	0	0
1.112166376778962	0	0	0	0	0	0	0	0	0	0	0	0	0	0	0	0	0	0
1.11487933652095	0	0	0	0	0	0	-4.925401987512203e-11	1.760317159581008e-11	0	0	0	0	0	0	0	0	0	-1.832917777622323e-12
1.117592296262939	0	0	0	0	0	0	-1.467627650868769e-09	5.624699974624428e-10	0	0	0	0	0	0	0	0	0	-4.946812414068625e-11
1.120305256004927	0	0	0	0	0	0	-4.554495110627282e-08	1.866400131850829e-08	0	0	0	0	0	0	0	0	0	-1.37224702609665e-09
1.123018215746916	0	0	0	0	0	0	-1.4603489145306e-06	6.412327204335805e-07	0	0	0	0	0	0	0	0	0	-3.859718594327275e-08
1.125731175488904	0	0	0	0	0	0	-4.687688121344225e-05	2.21901471007836e-05	0	0	0	0	0	0	0	0	0	-1.057648088985414e-06
1.128444135230893	0	0	0	0	0	0	-0.001484620569448435	0.0007569881076465214	0	0	0	0	0	0	0	0	0	-2.762687814571973e-05
1.131157094972881	0	0	0	0	0	0	-0.04555763599940699	0.0249033369395902	0	0	0	0	0	0	0	0	0	-0.0006654978386830908
1.13387005471487	0	0	0	0	0	0	-1.234629735863473	0.7345130441947113	0	0	0	0	0	0	0	0	0	-0.01263839204937279
1.136583014456858	0	0	0	0	0	0	-23.86710715645482	16.08206457750617	0	0	0	0	0	0	0	0	0	-0.1182772136505424
1.139295974198847	0	0	0	0	0	0	-144.0388711267202	129.0791459611943	0	0	0	0	0	0	0	0	0	0.6946247708805009
1.142008933940835	0	0	0	0	0	0	-662.7758909055732	654.436602373483	0	0	0	0	0	0	0	0	0	7.049770450650843
1.144721893682824	0	0	0	0	0	0	-1652.513165961048	1591.55079316314	0	0	0	0	0	0	0	0	0	21.31413877491057
1.147434853424812	0	0	0	0	0	0	-2539.251787795168	2482.84512852494	0	0	0	0	0	0	0	0	0	41.83673045489442
1.150147813166801	0	0	0	0	0	0	-2796.659772103603	3087.260145966577	0	0	0	0	0	0	0	0	0	65.80643199659603
1.152860772908789	0	0	0	0	0	0	-404.0356722880198	3437.754864133097	0	0	0	0	0	0	0	0	0	114.346873122214
1.155573732650777	0	0	0	0	0	0	-385.0307702794178	3713.84262243981	0	0	0	0	0	0	0	0	0	135.7306358757693
1.158286692392766	0	0	0	0	0	0	-329.6300989752389	3917.1895474955	0	0	0	0	0	0	0	0	0	154.9899380902394
1.160999652134755	0	0	0	0	0	0	-256.6916406959933	4061.674088525542	0	0	0	0	0	0	0	0	0	172.1768328874186
1.163712611876743	0	0	0	0	0	0	-166.1370784227885	4159.613875918012	0	0	0	0	0	0	0	0	0	186.9577381018296
1.166425571618731	0	0	0	0	0	0	-79.586094684348	4187.527507171104	0	0	0	0	0	0	0	0	0	200.179631868575
1.16913853136072	0	0	0	0	0	0	-9.38211835142312	4175.072209303416	0	0	0	0	0	0	0	0	0	215.8017600660946
1.171851491102708	0	0	0	0	0	0	51.70220110705596	4147.611851604931	0	0	0	0	0	0	0	0	0	234.1863433229886
1.174564450844697	0	0	0	0	0	0	100.9826926448683	4083.714397638127	0	0	0	0	0	0	0	0	0	252.4083909770408
